<svg xmlns="http://www.w3.org/2000/svg" width="80.374" height="42.843" viewBox="0 0 80.374 42.843">
  <g id="noun-cash-3349917" transform="translate(-78.484 -135.27)">
    <path id="Path_1" data-name="Path 1" d="M331.232,135.27h-30.7l-.952,3.208h31.652a2.807,2.807,0,0,1,2.8,2.8V172.1a2.806,2.806,0,0,1-2.8,2.8H288.8l-.947,3.208h43.379a6.016,6.016,0,0,0,6.005-6.011V141.279a6.011,6.011,0,0,0-6.005-6.008Z" transform="translate(-178.379 0)" fill="#fff"/>
    <path id="Path_2" data-name="Path 2" d="M332.365,206.3a8.332,8.332,0,0,1,8.334-8.334v-14.32a8.329,8.329,0,0,1-8.334-8.334H308.88L299.712,206.3h32.653Zm-.686-18.652a3.16,3.16,0,1,1-3.16,3.16A3.159,3.159,0,0,1,331.679,187.649ZM313.768,181.9v-3.288l2.2-.03v3.288a11.155,11.155,0,0,1,5.106,1.745l-1.231,2.61a10.467,10.467,0,0,0-5.131-1.622c-1.723,0-2.851.648-2.851,1.826,0,3.825,9.464,1.771,9.434,8.085,0,2.775-2.145,4.606-5.327,4.983v3.531h-2.2v-3.507a10.591,10.591,0,0,1-6.239-2.733l1.281-2.552a9.219,9.219,0,0,0,5.925,2.552c2.055,0,3.288-.776,3.288-2.125,0-3.911-9.469-1.728-9.469-7.967,0-2.677,2.054-4.453,5.214-4.8Z" transform="translate(-188.484 -34.117)" fill="#fff"/>
    <path id="Path_3" data-name="Path 3" d="M144.18,193.96h24.592v3.109H144.18Z" transform="translate(-55.972 -50.003)" fill="#fff"/>
    <path id="Path_4" data-name="Path 4" d="M111.34,269.5h24.592v3.109H111.34Z" transform="translate(-27.993 -114.362)" fill="#fff"/>
    <path id="Path_5" data-name="Path 5" d="M78.484,344.99h24.592V348.1H78.484Z" transform="translate(0 -178.679)" fill="#fff"/>
  </g>
</svg>
