<svg xmlns="http://www.w3.org/2000/svg" width="78" height="71.093" viewBox="0 0 78 71.093">
  <g id="noun-language-3325148" transform="translate(-83.652 -37.19)">
    <path id="Path_6" data-name="Path 6" d="M152.95,60.26H132.2V45.918a8.741,8.741,0,0,0-8.728-8.728H92.38a8.741,8.741,0,0,0-8.728,8.728V65.361a8.629,8.629,0,0,0,1.474,4.832c3.076,5.921,17.263,14.675,17.417,14.765a2.005,2.005,0,0,0,1,.282,1.91,1.91,0,0,0,1.782-2.64,53.545,53.545,0,0,1-2.384-8.561h10.253V88.392a8.728,8.728,0,0,0,8.664,8.715h20.506a53.516,53.516,0,0,1-2.384,8.535,1.91,1.91,0,0,0,1.782,2.64,2,2,0,0,0,1-.282c.154-.09,14.342-8.843,17.417-14.765a8.625,8.625,0,0,0,1.474-4.844v-19.4a8.741,8.741,0,0,0-8.7-8.728ZM109.2,70.192h-8.562a1.972,1.972,0,0,0-1.461.679,1.91,1.91,0,0,0-.436,1.538c0,.18.461,2.96,1.282,6.267-4.306-3-9.971-7.357-11.535-10.253a1.9,1.9,0,0,0-.192-.359A4.679,4.679,0,0,1,87.42,65.3V45.918a4.9,4.9,0,0,1,4.96-4.883h31.092a4.9,4.9,0,0,1,4.883,4.883V60.26h-6.5a8.728,8.728,0,0,0-6.562,2.986,11.186,11.186,0,0,1-3.96-.859,16.658,16.658,0,0,0,3.55-8.856h1.038a1.922,1.922,0,1,0,0-3.845h-6.075V46.264a1.922,1.922,0,1,0-3.845,0v3.422h-5.985a1.922,1.922,0,0,0,0,3.845h11a12.66,12.66,0,0,1-2.82,6.665,12.99,12.99,0,0,1-2.563-4.281,1.923,1.923,0,0,0-3.589,1.385,17.29,17.29,0,0,0,3,5.127,12.6,12.6,0,0,1-4.96.91,1.922,1.922,0,1,0,0,3.845,15.465,15.465,0,0,0,8.113-2.115,13.6,13.6,0,0,0,5.191,1.858,8.429,8.429,0,0,0-.256,2.051v1.282Zm48.7,18.2a4.677,4.677,0,0,1-.872,2.768,1.86,1.86,0,0,0-.192.346c-1.512,2.871-7.19,7.241-11.535,10.253a54.38,54.38,0,0,0,1.282-6.267h0a1.907,1.907,0,0,0-.435-1.538,1.948,1.948,0,0,0-1.448-.692h-22.84a4.884,4.884,0,0,1-4.883-4.87v-19.4a4.9,4.9,0,0,1,4.883-4.883h31.092a4.9,4.9,0,0,1,4.883,4.883Zm-13.547-7.126-5.127-12.816a1.027,1.027,0,0,0-.1-.205l-.077-.128h0a.823.823,0,0,0-.128-.166l-.1-.128-.141-.116-.154-.077a.5.5,0,0,0-.141-.077l-.192-.1h0a.447.447,0,0,0-.141,0l-.192-.064h-.743l-.218.064a.534.534,0,0,0-.128,0l-.192.1-.192.077a1.087,1.087,0,0,0-.141.116l-.141.116-.116.128h0a1.893,1.893,0,0,0-.128.167v.128l-.116.2-7.69,19.225h0a1.923,1.923,0,0,0,1.077,2.563,1.736,1.736,0,0,0,.717.141,1.935,1.935,0,0,0,1.782-1.2l2.076-5.2h7.69l2.076,5.2h0a1.948,1.948,0,0,0,1.794,1.2,1.734,1.734,0,0,0,.7-.141,1.923,1.923,0,0,0,1.077-2.563Zm-9.189-1.179,2.294-5.716,2.281,5.716Z" transform="translate(0)" fill="#fff"/>
  </g>
</svg>
