<svg xmlns="http://www.w3.org/2000/svg" width="51.05" height="72.611" viewBox="0 0 51.05 72.611">
  <g id="noun-sertificate-1402111" transform="translate(-154.105 0.75)">
    <path id="Path_7" data-name="Path 7" d="M181.783,57.4a8.617,8.617,0,1,1,12.926,0V70.015a1.077,1.077,0,0,1-1.632.923l-4.832-2.9-4.832,2.9a1.077,1.077,0,0,1-1.632-.923Zm6.463.763a6.463,6.463,0,1,0-6.463-6.463A6.463,6.463,0,0,0,188.246,58.166Zm-4.309,1v8.945l3.754-2.253a1.077,1.077,0,0,1,1.109,0l3.754,2.253V59.168a8.627,8.627,0,0,1-8.617,0Zm-26.929,1.153H176.4a1.077,1.077,0,0,1,0,2.154H155.932a1.077,1.077,0,0,1-1.077-1.077V1.077A1.077,1.077,0,0,1,155.932,0h47.4A1.077,1.077,0,0,1,204.4,1.077V61.4a1.077,1.077,0,0,1-1.077,1.077H200.1a1.077,1.077,0,1,1,0-2.154h2.155V2.155H157.009Zm7.54-47.4a1.077,1.077,0,1,1,0-2.154h30.161a1.077,1.077,0,0,1,0,2.154Zm0,10.772a1.077,1.077,0,0,1,0-2.155h30.161a1.077,1.077,0,0,1,0,2.155Zm0,10.771a1.077,1.077,0,1,1,0-2.154h30.161a1.077,1.077,0,0,1,0,2.154Zm0,10.771a1.077,1.077,0,1,1,0-2.154h8.617a1.077,1.077,0,0,1,0,2.154Z" transform="translate(0)" fill="#fff" stroke="#fff" stroke-width="1.5" fill-rule="evenodd"/>
  </g>
</svg>
